<mxfile host="app.diagrams.net" modified="2024-02-12T14:36:29.122Z" agent="Mozilla/5.0 (Windows NT 10.0; Win64; x64) AppleWebKit/537.36 (KHTML, like Gecko) Chrome/121.0.0.0 Safari/537.36" etag="h1FFNhODhyH06cFe7SZ_" version="23.1.2" type="device">
  <diagram name="Page-1" id="C6hGhgpN5T7CoV-hNzAK">
    <mxGraphModel dx="576" dy="1424" grid="1" gridSize="10" guides="1" tooltips="1" connect="1" arrows="1" fold="1" page="1" pageScale="1" pageWidth="850" pageHeight="1100" math="0" shadow="0">
      <root>
        <mxCell id="0" />
        <mxCell id="1" parent="0" />
        <mxCell id="1HYWstgYt6xAaFZq-GrD-40" value="" style="rounded=0;whiteSpace=wrap;html=1;fillColor=#fff2cc;strokeColor=#d6b656;" parent="1" vertex="1">
          <mxGeometry x="885" y="490" width="230" height="180" as="geometry" />
        </mxCell>
        <mxCell id="1HYWstgYt6xAaFZq-GrD-41" value="мой браузер" style="text;html=1;strokeColor=#d6b656;fillColor=#fff2cc;align=center;verticalAlign=middle;whiteSpace=wrap;rounded=0;" parent="1" vertex="1">
          <mxGeometry x="1010" y="460" width="60" height="30" as="geometry" />
        </mxCell>
        <mxCell id="1HYWstgYt6xAaFZq-GrD-36" value="" style="rounded=0;whiteSpace=wrap;html=1;fillColor=#fff2cc;strokeColor=#d6b656;" parent="1" vertex="1">
          <mxGeometry x="880" y="260" width="230" height="180" as="geometry" />
        </mxCell>
        <mxCell id="1HYWstgYt6xAaFZq-GrD-34" value="" style="rounded=0;whiteSpace=wrap;html=1;fillColor=#dae8fc;strokeColor=#6c8ebf;" parent="1" vertex="1">
          <mxGeometry x="1210" y="400" width="380" height="220" as="geometry" />
        </mxCell>
        <mxCell id="1HYWstgYt6xAaFZq-GrD-1" value="" style="outlineConnect=0;dashed=0;verticalLabelPosition=bottom;verticalAlign=top;align=center;html=1;shape=mxgraph.aws3.mobile_client;fillColor=#D2D3D3;gradientColor=none;" parent="1" vertex="1">
          <mxGeometry x="125" y="480" width="130" height="250" as="geometry" />
        </mxCell>
        <mxCell id="1HYWstgYt6xAaFZq-GrD-2" value="" style="outlineConnect=0;dashed=0;verticalLabelPosition=bottom;verticalAlign=top;align=center;html=1;shape=mxgraph.aws3.mobile_client;fillColor=#D2D3D3;gradientColor=none;" parent="1" vertex="1">
          <mxGeometry x="285" y="480" width="130" height="250" as="geometry" />
        </mxCell>
        <mxCell id="1HYWstgYt6xAaFZq-GrD-3" value="A" style="text;html=1;strokeColor=none;fillColor=none;align=center;verticalAlign=middle;whiteSpace=wrap;rounded=0;" parent="1" vertex="1">
          <mxGeometry x="160" y="450" width="60" height="30" as="geometry" />
        </mxCell>
        <mxCell id="1HYWstgYt6xAaFZq-GrD-5" value="B" style="text;html=1;strokeColor=none;fillColor=none;align=center;verticalAlign=middle;whiteSpace=wrap;rounded=0;" parent="1" vertex="1">
          <mxGeometry x="320" y="450" width="60" height="30" as="geometry" />
        </mxCell>
        <mxCell id="1HYWstgYt6xAaFZq-GrD-6" value="" style="shape=process;whiteSpace=wrap;html=1;backgroundOutline=1;" parent="1" vertex="1">
          <mxGeometry x="165" y="240" width="400" height="180" as="geometry" />
        </mxCell>
        <mxCell id="1HYWstgYt6xAaFZq-GrD-7" value="" style="shape=mxgraph.signs.healthcare.brain;html=1;pointerEvents=1;fillColor=#000000;strokeColor=none;verticalLabelPosition=bottom;verticalAlign=top;align=center;" parent="1" vertex="1">
          <mxGeometry x="325" y="150" width="98" height="85" as="geometry" />
        </mxCell>
        <mxCell id="1HYWstgYt6xAaFZq-GrD-8" value="brain ring" style="text;html=1;strokeColor=none;fillColor=none;align=center;verticalAlign=middle;whiteSpace=wrap;rounded=0;fontStyle=1;fontSize=17;" parent="1" vertex="1">
          <mxGeometry x="314.5" y="100" width="119" height="40" as="geometry" />
        </mxCell>
        <mxCell id="1HYWstgYt6xAaFZq-GrD-9" value="Вопрос?" style="text;html=1;strokeColor=none;fillColor=none;align=center;verticalAlign=middle;whiteSpace=wrap;rounded=0;" parent="1" vertex="1">
          <mxGeometry x="314.5" y="270" width="60" height="30" as="geometry" />
        </mxCell>
        <mxCell id="1HYWstgYt6xAaFZq-GrD-11" value="" style="outlineConnect=0;dashed=0;verticalLabelPosition=bottom;verticalAlign=top;align=center;html=1;shape=mxgraph.aws3.mobile_client;fillColor=#D2D3D3;gradientColor=none;" parent="1" vertex="1">
          <mxGeometry x="445" y="480" width="130" height="250" as="geometry" />
        </mxCell>
        <mxCell id="1HYWstgYt6xAaFZq-GrD-12" value="С" style="text;html=1;strokeColor=none;fillColor=none;align=center;verticalAlign=middle;whiteSpace=wrap;rounded=0;" parent="1" vertex="1">
          <mxGeometry x="480" y="450" width="60" height="30" as="geometry" />
        </mxCell>
        <mxCell id="1HYWstgYt6xAaFZq-GrD-13" value="Ответ1" style="text;html=1;strokeColor=none;fillColor=none;align=center;verticalAlign=middle;whiteSpace=wrap;rounded=0;" parent="1" vertex="1">
          <mxGeometry x="235" y="330" width="60" height="30" as="geometry" />
        </mxCell>
        <mxCell id="1HYWstgYt6xAaFZq-GrD-14" value="Ответ3" style="text;html=1;strokeColor=none;fillColor=none;align=center;verticalAlign=middle;whiteSpace=wrap;rounded=0;" parent="1" vertex="1">
          <mxGeometry x="245" y="370" width="60" height="30" as="geometry" />
        </mxCell>
        <mxCell id="1HYWstgYt6xAaFZq-GrD-15" value="Ответ2" style="text;html=1;strokeColor=none;fillColor=none;align=center;verticalAlign=middle;whiteSpace=wrap;rounded=0;" parent="1" vertex="1">
          <mxGeometry x="385" y="330" width="60" height="30" as="geometry" />
        </mxCell>
        <mxCell id="1HYWstgYt6xAaFZq-GrD-16" value="Ответ4" style="text;html=1;strokeColor=none;fillColor=none;align=center;verticalAlign=middle;whiteSpace=wrap;rounded=0;" parent="1" vertex="1">
          <mxGeometry x="385" y="370" width="60" height="30" as="geometry" />
        </mxCell>
        <mxCell id="1HYWstgYt6xAaFZq-GrD-17" value="ui for player" style="shape=note;whiteSpace=wrap;html=1;backgroundOutline=1;darkOpacity=0.05;" parent="1" vertex="1">
          <mxGeometry x="605" y="480" width="140" height="240" as="geometry" />
        </mxCell>
        <mxCell id="1HYWstgYt6xAaFZq-GrD-18" value="ui for зрители" style="shape=note;whiteSpace=wrap;html=1;backgroundOutline=1;darkOpacity=0.05;" parent="1" vertex="1">
          <mxGeometry x="605" y="240" width="160" height="180" as="geometry" />
        </mxCell>
        <mxCell id="1HYWstgYt6xAaFZq-GrD-19" value="60" style="text;html=1;strokeColor=none;fillColor=none;align=center;verticalAlign=middle;whiteSpace=wrap;rounded=0;" parent="1" vertex="1">
          <mxGeometry x="440" y="250" width="60" height="30" as="geometry" />
        </mxCell>
        <mxCell id="1HYWstgYt6xAaFZq-GrD-20" value="REACT JS" style="text;html=1;strokeColor=none;fillColor=none;align=center;verticalAlign=middle;whiteSpace=wrap;rounded=0;fontStyle=1;fontColor=#FF0000;fontSize=30;" parent="1" vertex="1">
          <mxGeometry x="30" y="280" width="130" height="70" as="geometry" />
        </mxCell>
        <mxCell id="1HYWstgYt6xAaFZq-GrD-21" value="ФУНКЦИОНАЛЬНАЯ" style="text;html=1;strokeColor=none;fillColor=none;align=center;verticalAlign=middle;whiteSpace=wrap;rounded=0;fontStyle=1;fontSize=26;" parent="1" vertex="1">
          <mxGeometry x="285" y="40" width="60" height="30" as="geometry" />
        </mxCell>
        <mxCell id="1HYWstgYt6xAaFZq-GrD-23" value="postgresql" style="shape=cylinder3;whiteSpace=wrap;html=1;boundedLbl=1;backgroundOutline=1;size=15;" parent="1" vertex="1">
          <mxGeometry x="1420" y="440" width="80" height="100" as="geometry" />
        </mxCell>
        <mxCell id="1HYWstgYt6xAaFZq-GrD-27" style="edgeStyle=orthogonalEdgeStyle;rounded=0;orthogonalLoop=1;jettySize=auto;html=1;" parent="1" source="1HYWstgYt6xAaFZq-GrD-24" target="1HYWstgYt6xAaFZq-GrD-23" edge="1">
          <mxGeometry relative="1" as="geometry" />
        </mxCell>
        <mxCell id="1HYWstgYt6xAaFZq-GrD-24" value="fastapi" style="shape=cube;whiteSpace=wrap;html=1;boundedLbl=1;backgroundOutline=1;darkOpacity=0.05;darkOpacity2=0.1;" parent="1" vertex="1">
          <mxGeometry x="1220" y="420" width="120" height="80" as="geometry" />
        </mxCell>
        <mxCell id="1HYWstgYt6xAaFZq-GrD-25" value="react" style="shape=note;whiteSpace=wrap;html=1;backgroundOutline=1;darkOpacity=0.05;" parent="1" vertex="1">
          <mxGeometry x="1020" y="310" width="70" height="90" as="geometry" />
        </mxCell>
        <mxCell id="1HYWstgYt6xAaFZq-GrD-26" value="react" style="shape=note;whiteSpace=wrap;html=1;backgroundOutline=1;darkOpacity=0.05;" parent="1" vertex="1">
          <mxGeometry x="1020" y="515" width="70" height="90" as="geometry" />
        </mxCell>
        <mxCell id="1HYWstgYt6xAaFZq-GrD-29" value="Chrome" style="ellipse;whiteSpace=wrap;html=1;aspect=fixed;" parent="1" vertex="1">
          <mxGeometry x="960" y="520" width="80" height="80" as="geometry" />
        </mxCell>
        <mxCell id="1HYWstgYt6xAaFZq-GrD-30" value="Chrome" style="ellipse;whiteSpace=wrap;html=1;aspect=fixed;" parent="1" vertex="1">
          <mxGeometry x="960" y="320" width="80" height="80" as="geometry" />
        </mxCell>
        <mxCell id="1HYWstgYt6xAaFZq-GrD-31" value="player" style="text;html=1;strokeColor=none;fillColor=none;align=center;verticalAlign=middle;whiteSpace=wrap;rounded=0;" parent="1" vertex="1">
          <mxGeometry x="890" y="560" width="60" height="30" as="geometry" />
        </mxCell>
        <mxCell id="1HYWstgYt6xAaFZq-GrD-32" value="ghost" style="text;html=1;strokeColor=none;fillColor=none;align=center;verticalAlign=middle;whiteSpace=wrap;rounded=0;" parent="1" vertex="1">
          <mxGeometry x="880" y="350" width="60" height="30" as="geometry" />
        </mxCell>
        <mxCell id="1HYWstgYt6xAaFZq-GrD-35" value="ps.kz" style="text;html=1;strokeColor=#6c8ebf;fillColor=#dae8fc;align=center;verticalAlign=middle;whiteSpace=wrap;rounded=0;" parent="1" vertex="1">
          <mxGeometry x="1460" y="360" width="60" height="30" as="geometry" />
        </mxCell>
        <mxCell id="1HYWstgYt6xAaFZq-GrD-37" value="мой браузер" style="text;html=1;strokeColor=#d6b656;fillColor=#fff2cc;align=center;verticalAlign=middle;whiteSpace=wrap;rounded=0;" parent="1" vertex="1">
          <mxGeometry x="1010" y="230" width="60" height="30" as="geometry" />
        </mxCell>
        <mxCell id="1HYWstgYt6xAaFZq-GrD-44" value="html" style="text;html=1;strokeColor=#82b366;fillColor=#d5e8d4;align=center;verticalAlign=middle;whiteSpace=wrap;rounded=0;" parent="1" vertex="1">
          <mxGeometry x="1110" y="470" width="60" height="30" as="geometry" />
        </mxCell>
        <mxCell id="1HYWstgYt6xAaFZq-GrD-45" value="" style="shape=flexArrow;endArrow=classic;startArrow=classic;html=1;rounded=0;fillColor=#d5e8d4;strokeColor=#82b366;" parent="1" edge="1">
          <mxGeometry width="100" height="100" relative="1" as="geometry">
            <mxPoint x="1110" y="560" as="sourcePoint" />
            <mxPoint x="1210" y="470" as="targetPoint" />
          </mxGeometry>
        </mxCell>
        <mxCell id="1HYWstgYt6xAaFZq-GrD-47" value="html" style="text;html=1;strokeColor=#82b366;fillColor=#d5e8d4;align=center;verticalAlign=middle;whiteSpace=wrap;rounded=0;" parent="1" vertex="1">
          <mxGeometry x="1130" y="370" width="60" height="30" as="geometry" />
        </mxCell>
        <mxCell id="1HYWstgYt6xAaFZq-GrD-48" value="" style="shape=flexArrow;endArrow=classic;startArrow=classic;html=1;rounded=0;fillColor=#d5e8d4;strokeColor=#82b366;" parent="1" source="1HYWstgYt6xAaFZq-GrD-36" edge="1">
          <mxGeometry width="100" height="100" relative="1" as="geometry">
            <mxPoint x="1130" y="450" as="sourcePoint" />
            <mxPoint x="1200" y="420" as="targetPoint" />
          </mxGeometry>
        </mxCell>
        <mxCell id="1HYWstgYt6xAaFZq-GrD-49" style="edgeStyle=orthogonalEdgeStyle;rounded=0;orthogonalLoop=1;jettySize=auto;html=1;entryX=0;entryY=0;entryDx=0;entryDy=67.5;entryPerimeter=0;fillColor=#f8cecc;strokeColor=#b85450;" parent="1" source="1HYWstgYt6xAaFZq-GrD-26" target="1HYWstgYt6xAaFZq-GrD-23" edge="1">
          <mxGeometry relative="1" as="geometry" />
        </mxCell>
        <mxCell id="1HYWstgYt6xAaFZq-GrD-52" value="danger, непроизводительно, нарушение архитектур" style="text;html=1;strokeColor=none;fillColor=none;align=center;verticalAlign=middle;whiteSpace=wrap;rounded=0;" parent="1" vertex="1">
          <mxGeometry x="1210" y="565" width="180" height="40" as="geometry" />
        </mxCell>
        <mxCell id="1HYWstgYt6xAaFZq-GrD-53" value="SOLID" style="text;html=1;strokeColor=none;fillColor=none;align=center;verticalAlign=middle;whiteSpace=wrap;rounded=0;" parent="1" vertex="1">
          <mxGeometry x="1240" y="720" width="60" height="30" as="geometry" />
        </mxCell>
        <mxCell id="1HYWstgYt6xAaFZq-GrD-54" value="GRA..QL" style="text;html=1;strokeColor=none;fillColor=none;align=center;verticalAlign=middle;whiteSpace=wrap;rounded=0;" parent="1" vertex="1">
          <mxGeometry x="1320" y="720" width="60" height="30" as="geometry" />
        </mxCell>
        <mxCell id="1HYWstgYt6xAaFZq-GrD-55" style="edgeStyle=orthogonalEdgeStyle;rounded=0;orthogonalLoop=1;jettySize=auto;html=1;entryX=0;entryY=0;entryDx=0;entryDy=60;entryPerimeter=0;" parent="1" source="1HYWstgYt6xAaFZq-GrD-26" target="1HYWstgYt6xAaFZq-GrD-24" edge="1">
          <mxGeometry relative="1" as="geometry" />
        </mxCell>
        <mxCell id="1HYWstgYt6xAaFZq-GrD-56" style="edgeStyle=orthogonalEdgeStyle;rounded=0;orthogonalLoop=1;jettySize=auto;html=1;entryX=-0.001;entryY=0.188;entryDx=0;entryDy=0;entryPerimeter=0;" parent="1" source="1HYWstgYt6xAaFZq-GrD-25" target="1HYWstgYt6xAaFZq-GrD-24" edge="1">
          <mxGeometry relative="1" as="geometry" />
        </mxCell>
        <mxCell id="1HYWstgYt6xAaFZq-GrD-57" value="Angular / React / Vue" style="text;html=1;strokeColor=none;fillColor=none;align=center;verticalAlign=middle;whiteSpace=wrap;rounded=0;" parent="1" vertex="1">
          <mxGeometry x="1240" y="280" width="160" height="40" as="geometry" />
        </mxCell>
        <mxCell id="1HYWstgYt6xAaFZq-GrD-58" value="Jinja -&amp;nbsp;" style="text;html=1;strokeColor=#9673a6;fillColor=#e1d5e7;align=center;verticalAlign=middle;whiteSpace=wrap;rounded=0;" parent="1" vertex="1">
          <mxGeometry x="1240" y="200" width="60" height="30" as="geometry" />
        </mxCell>
        <mxCell id="1HYWstgYt6xAaFZq-GrD-60" value="fastapi" style="shape=cube;whiteSpace=wrap;html=1;boundedLbl=1;backgroundOutline=1;darkOpacity=0.05;darkOpacity2=0.1;" parent="1" vertex="1">
          <mxGeometry x="1180" y="-240" width="120" height="80" as="geometry" />
        </mxCell>
        <mxCell id="1HYWstgYt6xAaFZq-GrD-62" value="нажатие команды №--" style="shape=note;whiteSpace=wrap;html=1;backgroundOutline=1;darkOpacity=0.05;" parent="1" vertex="1">
          <mxGeometry x="1000" y="-280" width="80" height="100" as="geometry" />
        </mxCell>
        <mxCell id="1HYWstgYt6xAaFZq-GrD-63" style="edgeStyle=orthogonalEdgeStyle;rounded=0;orthogonalLoop=1;jettySize=auto;html=1;entryX=0;entryY=0;entryDx=0;entryDy=30;entryPerimeter=0;" parent="1" source="1HYWstgYt6xAaFZq-GrD-62" target="1HYWstgYt6xAaFZq-GrD-60" edge="1">
          <mxGeometry relative="1" as="geometry" />
        </mxCell>
        <mxCell id="1HYWstgYt6xAaFZq-GrD-66" style="edgeStyle=orthogonalEdgeStyle;rounded=0;orthogonalLoop=1;jettySize=auto;html=1;" parent="1" source="1HYWstgYt6xAaFZq-GrD-64" target="1HYWstgYt6xAaFZq-GrD-60" edge="1">
          <mxGeometry relative="1" as="geometry" />
        </mxCell>
        <mxCell id="1HYWstgYt6xAaFZq-GrD-64" value="Вопрос: ...&lt;br&gt;&lt;br&gt;ответ1(кнопка)" style="shape=note;whiteSpace=wrap;html=1;backgroundOutline=1;darkOpacity=0.05;" parent="1" vertex="1">
          <mxGeometry x="930" y="-130" width="100" height="100" as="geometry" />
        </mxCell>
        <mxCell id="1HYWstgYt6xAaFZq-GrD-65" value="Вопрос: ...&lt;br&gt;&lt;br&gt;ответ1(кнопка)" style="shape=note;whiteSpace=wrap;html=1;backgroundOutline=1;darkOpacity=0.05;" parent="1" vertex="1">
          <mxGeometry x="1070" y="-120" width="100" height="100" as="geometry" />
        </mxCell>
        <mxCell id="1HYWstgYt6xAaFZq-GrD-67" style="edgeStyle=orthogonalEdgeStyle;rounded=0;orthogonalLoop=1;jettySize=auto;html=1;entryX=0;entryY=0;entryDx=70;entryDy=80;entryPerimeter=0;" parent="1" source="1HYWstgYt6xAaFZq-GrD-65" target="1HYWstgYt6xAaFZq-GrD-60" edge="1">
          <mxGeometry relative="1" as="geometry" />
        </mxCell>
        <mxCell id="1HYWstgYt6xAaFZq-GrD-68" value="1" style="text;html=1;strokeColor=none;fillColor=none;align=center;verticalAlign=middle;whiteSpace=wrap;rounded=0;" parent="1" vertex="1">
          <mxGeometry x="960" y="-160" width="60" height="30" as="geometry" />
        </mxCell>
        <mxCell id="1HYWstgYt6xAaFZq-GrD-69" value="2" style="text;html=1;strokeColor=none;fillColor=none;align=center;verticalAlign=middle;whiteSpace=wrap;rounded=0;" parent="1" vertex="1">
          <mxGeometry x="1090" y="-150" width="60" height="30" as="geometry" />
        </mxCell>
        <mxCell id="1HYWstgYt6xAaFZq-GrD-70" value="players" style="text;html=1;strokeColor=none;fillColor=none;align=center;verticalAlign=middle;whiteSpace=wrap;rounded=0;" parent="1" vertex="1">
          <mxGeometry x="1030" y="-160" width="60" height="30" as="geometry" />
        </mxCell>
        <mxCell id="1HYWstgYt6xAaFZq-GrD-72" value="host" style="text;html=1;strokeColor=none;fillColor=none;align=center;verticalAlign=middle;whiteSpace=wrap;rounded=0;" parent="1" vertex="1">
          <mxGeometry x="1010" y="-320" width="50" height="30" as="geometry" />
        </mxCell>
        <mxCell id="1HYWstgYt6xAaFZq-GrD-75" style="edgeStyle=orthogonalEdgeStyle;rounded=0;orthogonalLoop=1;jettySize=auto;html=1;" parent="1" source="1HYWstgYt6xAaFZq-GrD-74" target="1HYWstgYt6xAaFZq-GrD-60" edge="1">
          <mxGeometry relative="1" as="geometry" />
        </mxCell>
        <mxCell id="1HYWstgYt6xAaFZq-GrD-74" value="sqlite" style="shape=cylinder3;whiteSpace=wrap;html=1;boundedLbl=1;backgroundOutline=1;size=15;" parent="1" vertex="1">
          <mxGeometry x="1360" y="-240" width="80" height="100" as="geometry" />
        </mxCell>
        <mxCell id="S1m87sOYkMl-aC7AprQz-1" value="показ вопросов" style="text;html=1;strokeColor=none;fillColor=none;align=center;verticalAlign=middle;whiteSpace=wrap;rounded=0;" vertex="1" parent="1">
          <mxGeometry x="1090" y="-350" width="60" height="30" as="geometry" />
        </mxCell>
      </root>
    </mxGraphModel>
  </diagram>
</mxfile>
